<mxfile host="app.diagrams.net" modified="2021-01-18T11:25:57.697Z" agent="5.0 (Windows NT 10.0; Win64; x64) AppleWebKit/537.36 (KHTML, like Gecko) Chrome/87.0.4280.141 Safari/537.36" etag="jiYegSNh2RerpgOjuP4X" version="14.1.8" type="github">
  <diagram id="lynACueMoo2KczUXoygN" name="第 1 页">
    <mxGraphModel dx="1215" dy="568" grid="1" gridSize="10" guides="1" tooltips="1" connect="1" arrows="1" fold="1" page="1" pageScale="1" pageWidth="827" pageHeight="1169" math="0" shadow="0">
      <root>
        <mxCell id="0" />
        <mxCell id="1" parent="0" />
        <mxCell id="9uQAae-0hc1BVuZkd7k2-1" value="开始" style="strokeWidth=2;html=1;shape=mxgraph.flowchart.terminator;whiteSpace=wrap;fontSize=15;" parent="1" vertex="1">
          <mxGeometry x="324" y="60" width="90" height="40" as="geometry" />
        </mxCell>
        <mxCell id="9uQAae-0hc1BVuZkd7k2-2" value="用户登录" style="rounded=0;whiteSpace=wrap;html=1;absoluteArcSize=1;arcSize=14;strokeWidth=2;fontSize=15;" parent="1" vertex="1">
          <mxGeometry x="308.5" y="150" width="121" height="40" as="geometry" />
        </mxCell>
        <mxCell id="9uQAae-0hc1BVuZkd7k2-3" value="" style="endArrow=classic;html=1;exitX=0.5;exitY=1;exitDx=0;exitDy=0;exitPerimeter=0;strokeWidth=2;fontSize=15;" parent="1" source="9uQAae-0hc1BVuZkd7k2-1" target="9uQAae-0hc1BVuZkd7k2-2" edge="1">
          <mxGeometry width="50" height="50" relative="1" as="geometry">
            <mxPoint x="470" y="140" as="sourcePoint" />
            <mxPoint x="520" y="90" as="targetPoint" />
          </mxGeometry>
        </mxCell>
        <mxCell id="9uQAae-0hc1BVuZkd7k2-4" value="验证账号信息" style="strokeWidth=2;html=1;shape=mxgraph.flowchart.decision;whiteSpace=wrap;rounded=0;fontSize=15;" parent="1" vertex="1">
          <mxGeometry x="281" y="240" width="176" height="70" as="geometry" />
        </mxCell>
        <mxCell id="9uQAae-0hc1BVuZkd7k2-5" value="" style="endArrow=classic;html=1;strokeWidth=2;exitX=0.5;exitY=1;exitDx=0;exitDy=0;fontSize=15;" parent="1" source="9uQAae-0hc1BVuZkd7k2-2" target="9uQAae-0hc1BVuZkd7k2-4" edge="1">
          <mxGeometry width="50" height="50" relative="1" as="geometry">
            <mxPoint x="550" y="210" as="sourcePoint" />
            <mxPoint x="600" y="160" as="targetPoint" />
          </mxGeometry>
        </mxCell>
        <mxCell id="9uQAae-0hc1BVuZkd7k2-7" value="" style="endArrow=none;html=1;strokeWidth=2;rounded=0;entryX=0.5;entryY=0;entryDx=0;entryDy=0;fontSize=15;" parent="1" target="9uQAae-0hc1BVuZkd7k2-8" edge="1">
          <mxGeometry width="50" height="50" relative="1" as="geometry">
            <mxPoint x="369" y="120" as="sourcePoint" />
            <mxPoint x="80" y="230" as="targetPoint" />
            <Array as="points">
              <mxPoint x="170" y="120" />
            </Array>
          </mxGeometry>
        </mxCell>
        <mxCell id="9uQAae-0hc1BVuZkd7k2-8" value="重新登录" style="rounded=0;whiteSpace=wrap;html=1;absoluteArcSize=1;arcSize=14;strokeWidth=2;fontSize=15;" parent="1" vertex="1">
          <mxGeometry x="108" y="255" width="121" height="40" as="geometry" />
        </mxCell>
        <mxCell id="9uQAae-0hc1BVuZkd7k2-9" value="" style="endArrow=classic;html=1;strokeWidth=2;exitX=0;exitY=0.5;exitDx=0;exitDy=0;exitPerimeter=0;entryX=1;entryY=0.5;entryDx=0;entryDy=0;fontSize=15;" parent="1" source="9uQAae-0hc1BVuZkd7k2-4" target="9uQAae-0hc1BVuZkd7k2-8" edge="1">
          <mxGeometry width="50" height="50" relative="1" as="geometry">
            <mxPoint x="200" y="390" as="sourcePoint" />
            <mxPoint x="250" y="340" as="targetPoint" />
          </mxGeometry>
        </mxCell>
        <mxCell id="9uQAae-0hc1BVuZkd7k2-10" value="" style="verticalLabelPosition=bottom;verticalAlign=top;html=1;shape=process;whiteSpace=wrap;rounded=1;size=0.14;arcSize=6;strokeWidth=2;fontSize=15;" parent="1" vertex="1">
          <mxGeometry x="254" y="360" width="230" height="50" as="geometry" />
        </mxCell>
        <mxCell id="9uQAae-0hc1BVuZkd7k2-11" value="根据角色不同主界面" style="text;html=1;align=center;verticalAlign=middle;resizable=0;points=[];autosize=1;fontSize=15;" parent="1" vertex="1">
          <mxGeometry x="295" y="375" width="150" height="20" as="geometry" />
        </mxCell>
        <mxCell id="9uQAae-0hc1BVuZkd7k2-12" value="" style="endArrow=classic;html=1;strokeWidth=2;exitX=0.5;exitY=1;exitDx=0;exitDy=0;exitPerimeter=0;fontSize=15;" parent="1" source="9uQAae-0hc1BVuZkd7k2-4" target="9uQAae-0hc1BVuZkd7k2-10" edge="1">
          <mxGeometry width="50" height="50" relative="1" as="geometry">
            <mxPoint x="500" y="310" as="sourcePoint" />
            <mxPoint x="550" y="260" as="targetPoint" />
          </mxGeometry>
        </mxCell>
        <mxCell id="9uQAae-0hc1BVuZkd7k2-13" value="主界面" style="rounded=0;whiteSpace=wrap;html=1;absoluteArcSize=1;arcSize=14;strokeWidth=2;fontSize=15;" parent="1" vertex="1">
          <mxGeometry x="308.5" y="460" width="121" height="40" as="geometry" />
        </mxCell>
        <mxCell id="9uQAae-0hc1BVuZkd7k2-14" value="" style="endArrow=classic;html=1;strokeWidth=2;exitX=0.5;exitY=1;exitDx=0;exitDy=0;entryX=0.5;entryY=0;entryDx=0;entryDy=0;fontSize=15;" parent="1" source="9uQAae-0hc1BVuZkd7k2-10" target="9uQAae-0hc1BVuZkd7k2-13" edge="1">
          <mxGeometry width="50" height="50" relative="1" as="geometry">
            <mxPoint x="480" y="490" as="sourcePoint" />
            <mxPoint x="530" y="440" as="targetPoint" />
          </mxGeometry>
        </mxCell>
        <mxCell id="9uQAae-0hc1BVuZkd7k2-15" value="" style="endArrow=classic;html=1;strokeWidth=2;fontSize=15;entryX=0.5;entryY=0;entryDx=0;entryDy=0;exitX=0.5;exitY=1;exitDx=0;exitDy=0;rounded=0;" parent="1" source="9uQAae-0hc1BVuZkd7k2-13" target="9uQAae-0hc1BVuZkd7k2-19" edge="1">
          <mxGeometry width="50" height="50" relative="1" as="geometry">
            <mxPoint x="150" y="480" as="sourcePoint" />
            <mxPoint x="200" y="430" as="targetPoint" />
            <Array as="points">
              <mxPoint x="369" y="530" />
              <mxPoint x="155" y="530" />
            </Array>
          </mxGeometry>
        </mxCell>
        <mxCell id="9uQAae-0hc1BVuZkd7k2-16" value="科研&lt;br style=&quot;font-size: 15px;&quot;&gt;信息&lt;br style=&quot;font-size: 15px;&quot;&gt;查询" style="rounded=0;whiteSpace=wrap;html=1;absoluteArcSize=1;arcSize=14;strokeWidth=2;fontSize=15;" parent="1" vertex="1">
          <mxGeometry x="204" y="590" width="50" height="90" as="geometry" />
        </mxCell>
        <mxCell id="9uQAae-0hc1BVuZkd7k2-18" value="科研&lt;br&gt;成果&lt;br&gt;审批" style="rounded=0;whiteSpace=wrap;html=1;absoluteArcSize=1;arcSize=14;strokeWidth=2;fontSize=15;" parent="1" vertex="1">
          <mxGeometry x="344" y="590" width="50" height="90" as="geometry" />
        </mxCell>
        <mxCell id="9uQAae-0hc1BVuZkd7k2-19" value="用户&lt;br&gt;信息&lt;br&gt;管理" style="rounded=0;whiteSpace=wrap;html=1;absoluteArcSize=1;arcSize=14;strokeWidth=2;fontSize=15;" parent="1" vertex="1">
          <mxGeometry x="130" y="590" width="50" height="90" as="geometry" />
        </mxCell>
        <mxCell id="9uQAae-0hc1BVuZkd7k2-20" value="权限&lt;br&gt;管理" style="rounded=0;whiteSpace=wrap;html=1;absoluteArcSize=1;arcSize=14;strokeWidth=2;fontSize=15;" parent="1" vertex="1">
          <mxGeometry x="414" y="590" width="50" height="90" as="geometry" />
        </mxCell>
        <mxCell id="9uQAae-0hc1BVuZkd7k2-21" value="信息&lt;br&gt;统计" style="rounded=0;whiteSpace=wrap;html=1;absoluteArcSize=1;arcSize=14;strokeWidth=2;fontSize=15;" parent="1" vertex="1">
          <mxGeometry x="484" y="590" width="50" height="90" as="geometry" />
        </mxCell>
        <mxCell id="9uQAae-0hc1BVuZkd7k2-22" value="数据&lt;br&gt;备份" style="rounded=0;whiteSpace=wrap;html=1;absoluteArcSize=1;arcSize=14;strokeWidth=2;fontSize=15;" parent="1" vertex="1">
          <mxGeometry x="560" y="590" width="50" height="90" as="geometry" />
        </mxCell>
        <mxCell id="9uQAae-0hc1BVuZkd7k2-23" value="科研&lt;br&gt;成果&lt;br&gt;申报" style="rounded=0;whiteSpace=wrap;html=1;absoluteArcSize=1;arcSize=14;strokeWidth=2;fontSize=15;" parent="1" vertex="1">
          <mxGeometry x="274" y="590" width="50" height="90" as="geometry" />
        </mxCell>
        <mxCell id="9uQAae-0hc1BVuZkd7k2-24" value="" style="endArrow=classic;html=1;strokeWidth=2;fontSize=15;entryX=0.5;entryY=0;entryDx=0;entryDy=0;exitX=0.5;exitY=1;exitDx=0;exitDy=0;rounded=0;" parent="1" source="9uQAae-0hc1BVuZkd7k2-13" target="9uQAae-0hc1BVuZkd7k2-16" edge="1">
          <mxGeometry width="50" height="50" relative="1" as="geometry">
            <mxPoint x="460" y="560" as="sourcePoint" />
            <mxPoint x="510" y="510" as="targetPoint" />
            <Array as="points">
              <mxPoint x="369" y="530" />
              <mxPoint x="229" y="530" />
            </Array>
          </mxGeometry>
        </mxCell>
        <mxCell id="9uQAae-0hc1BVuZkd7k2-25" value="" style="endArrow=classic;html=1;strokeWidth=2;fontSize=15;entryX=0.5;entryY=0;entryDx=0;entryDy=0;exitX=0.5;exitY=1;exitDx=0;exitDy=0;rounded=0;" parent="1" source="9uQAae-0hc1BVuZkd7k2-13" target="9uQAae-0hc1BVuZkd7k2-23" edge="1">
          <mxGeometry width="50" height="50" relative="1" as="geometry">
            <mxPoint x="540" y="550" as="sourcePoint" />
            <mxPoint x="590" y="500" as="targetPoint" />
            <Array as="points">
              <mxPoint x="369" y="530" />
              <mxPoint x="299" y="530" />
            </Array>
          </mxGeometry>
        </mxCell>
        <mxCell id="9uQAae-0hc1BVuZkd7k2-26" value="" style="endArrow=classic;html=1;strokeWidth=2;fontSize=15;entryX=0.5;entryY=0;entryDx=0;entryDy=0;exitX=0.5;exitY=1;exitDx=0;exitDy=0;" parent="1" source="9uQAae-0hc1BVuZkd7k2-13" target="9uQAae-0hc1BVuZkd7k2-18" edge="1">
          <mxGeometry width="50" height="50" relative="1" as="geometry">
            <mxPoint x="430" y="570" as="sourcePoint" />
            <mxPoint x="480" y="520" as="targetPoint" />
          </mxGeometry>
        </mxCell>
        <mxCell id="9uQAae-0hc1BVuZkd7k2-27" value="" style="endArrow=classic;html=1;strokeWidth=2;fontSize=15;entryX=0.5;entryY=0;entryDx=0;entryDy=0;exitX=0.5;exitY=1;exitDx=0;exitDy=0;rounded=0;" parent="1" source="9uQAae-0hc1BVuZkd7k2-13" target="9uQAae-0hc1BVuZkd7k2-20" edge="1">
          <mxGeometry width="50" height="50" relative="1" as="geometry">
            <mxPoint x="520" y="550" as="sourcePoint" />
            <mxPoint x="570" y="500" as="targetPoint" />
            <Array as="points">
              <mxPoint x="369" y="530" />
              <mxPoint x="439" y="530" />
            </Array>
          </mxGeometry>
        </mxCell>
        <mxCell id="9uQAae-0hc1BVuZkd7k2-28" value="" style="endArrow=classic;html=1;strokeWidth=2;fontSize=15;rounded=0;entryX=0.5;entryY=0;entryDx=0;entryDy=0;exitX=0.5;exitY=1;exitDx=0;exitDy=0;" parent="1" source="9uQAae-0hc1BVuZkd7k2-13" target="9uQAae-0hc1BVuZkd7k2-22" edge="1">
          <mxGeometry width="50" height="50" relative="1" as="geometry">
            <mxPoint x="560" y="460" as="sourcePoint" />
            <mxPoint x="610" y="410" as="targetPoint" />
            <Array as="points">
              <mxPoint x="369" y="530" />
              <mxPoint x="585" y="530" />
            </Array>
          </mxGeometry>
        </mxCell>
        <mxCell id="9uQAae-0hc1BVuZkd7k2-29" value="" style="endArrow=classic;html=1;strokeWidth=2;fontSize=15;rounded=0;entryX=0.5;entryY=0;entryDx=0;entryDy=0;exitX=0.5;exitY=1;exitDx=0;exitDy=0;" parent="1" source="9uQAae-0hc1BVuZkd7k2-13" target="9uQAae-0hc1BVuZkd7k2-21" edge="1">
          <mxGeometry width="50" height="50" relative="1" as="geometry">
            <mxPoint x="570" y="470" as="sourcePoint" />
            <mxPoint x="620" y="420" as="targetPoint" />
            <Array as="points">
              <mxPoint x="369" y="530" />
              <mxPoint x="510" y="530" />
            </Array>
          </mxGeometry>
        </mxCell>
        <mxCell id="9uQAae-0hc1BVuZkd7k2-30" value="Yes" style="text;html=1;align=center;verticalAlign=middle;resizable=0;points=[];autosize=1;fontSize=15;" parent="1" vertex="1">
          <mxGeometry x="370" y="320" width="40" height="20" as="geometry" />
        </mxCell>
        <mxCell id="9uQAae-0hc1BVuZkd7k2-31" value="No" style="text;html=1;align=center;verticalAlign=middle;resizable=0;points=[];autosize=1;fontSize=15;" parent="1" vertex="1">
          <mxGeometry x="244" y="250" width="30" height="20" as="geometry" />
        </mxCell>
      </root>
    </mxGraphModel>
  </diagram>
</mxfile>
